<?xml version="1.0" encoding="UTF-8"?>
<svg viewBox="0 0 128 128" version="1.1" xmlns="http://www.w3.org/2000/svg" xmlns:xlink="http://www.w3.org/1999/xlink">
    <title>e-mail</title>
    <g id="Page-1" stroke="none" stroke-width="1" fill="none" fill-rule="evenodd">
        <g id="email" fill="#001E60" fill-rule="nonzero">
            <path d="M71.81,61.47 C72.277733,61.1815706 72.4251012,60.569769 72.14,60.1 C72.0013745,59.8725459 71.7777316,59.709798 71.5186668,59.6478478 C71.2596021,59.5858975 70.9865272,59.629865 70.76,59.77 C68.4459378,61.1208476 65.8370796,61.8863415 63.16,62 C59.16,62 48.71,59.25 48.71,46.71 C48.71,36.71 56.93,28 66.29,28 C69.29,28 79.29,29 79.29,41.71 C79.29,47.81 74.94,51.55 72.57,51.55 C71.4,51.55 70.4,51.55 69.86,50.86 C69.32,50.17 69.15,48.56 69.56,46.32 C70.68,40.16 71.25,37.84 71.26,37.81 C71.3921055,37.2743509 71.0654504,36.7329088 70.53,36.6 C69.9943509,36.4678945 69.4529088,36.7945496 69.32,37.33 C69.32,37.33 69.25,37.58 69.15,38.04 C68.2506242,37.0841552 67.011484,36.5202566 65.7,36.47 C62.77,36.23 59,38.07 57.19,42.74 C56.0608418,45.2871356 56.0608418,48.1928644 57.19,50.74 C57.8538798,52.0879811 59.0804552,53.0729029 60.54,53.43 C60.9457877,53.529736 61.3621353,53.5801006 61.78,53.58 C64.0334278,53.4537347 66.1224146,52.3600243 67.51,50.58 C67.6508458,51.176527 67.924283,51.7336552 68.31,52.21 C69.48,53.62 71.31,53.62 72.55,53.62 C76.02,53.62 81.27,48.9 81.27,41.78 C81.27,26.83 68.77,26.07 66.27,26.07 C55.66,26.07 46.69,35.56 46.69,46.78 C46.71,59.4 56.55,64 63.16,64 C66.2101851,63.8973257 69.185233,63.0271672 71.81,61.47 Z M67.59,46 C67.52,46.38 67.47,46.73 67.42,47.07 C66,50.09 63.25,52 61,51.46 C60.1247279,51.2099548 59.397371,50.598975 59,49.78 C58.1580592,47.7516544 58.1869867,45.4663842 59.08,43.46 C60.51,39.75 63.36,38.28 65.55,38.46 C67.55,38.62 68.38,39.66 68.39,41.8 C68.15,42.94 67.89,44.31 67.59,46 Z M126.23,55.8 L112,42.47 L112,22 C112,18.6862915 109.313708,16 106,16 L83.62,16 L68.21,1.63 C65.8225806,-0.539504427 62.1774194,-0.539504427 59.79,1.63 L44.38,16 L22,16 C18.6862915,16 16,18.6862915 16,22 L16,42.47 L1.77,55.76 C0.635146769,56.8786955 -0.00262352143,58.4064616 -3.10862447e-15,60 L-3.10862447e-15,122 C-2.70281268e-15,125.313708 2.6862915,128 6,128 L122,128 C125.313708,128 128,125.313708 128,122 L128,60 C128.002624,58.4064616 127.364853,56.8786955 126.23,55.76 L126.23,55.8 Z M112,45.21 L123.77,56.21 L112,61.83 L112,45.21 Z M61.15,3.09 C62.7647749,1.61768521 65.2352251,1.61768521 66.85,3.09 L80.69,16 L47.31,16 L61.15,3.09 Z M18,22 C18,19.790861 19.790861,18 22,18 L106,18 C108.209139,18 110,19.790861 110,22 L110,62.79 L75.07,79.5 L68.19,73.5 C65.7679724,71.4631586 62.2320276,71.4631586 59.81,73.5 L52.93,79.5 L18,62.79 L18,22 Z M16,45.21 L16,61.83 L4.23,56.19 L16,45.21 Z M2,122 L2,60 C2.00369023,59.1753838 2.26215074,58.3720606 2.74,57.7 L51.28,80.93 L2.28,123.45 C2.09988537,122.987537 2.00502097,122.496275 2,122 Z M122,126 L6,126 C5.07446865,125.992046 4.18033737,125.663374 3.47,125.07 L61.13,75 C62.7981872,73.6197794 65.2118128,73.6197794 66.88,75 L124.53,125 C123.829402,125.618685 122.934266,125.972494 122,126 Z M126,122 C125.994979,122.496275 125.900115,122.987537 125.72,123.45 L76.72,80.93 L125.26,57.7 C125.737849,58.3720606 125.99631,59.1753838 126,60 L126,122 Z"></path>
        </g>
    </g>
</svg>