<svg viewBox="0 0 1134 738" xmlns="http://www.w3.org/2000/svg"><g fill="none" fill-rule="evenodd"><path fill="#1C3664" d="M0 0h1133.86v737.01H0z"/><path stroke="#FFF" stroke-width="15" d="M1053.86 721.01H80l-64.14-64V80L80 16h973.859L1118 80v577.01z"/><path d="M141.95 175.48L138.43 190H87.61l18.26-76.23h17.16l-14.85 61.71h33.77zm8.25-8.14c0-4.693.825-9.24 2.475-13.64 1.65-4.4 3.978-8.305 6.985-11.715s6.655-6.16 10.945-8.25 9.038-3.135 14.245-3.135c2.567 0 4.95.367 7.15 1.1 2.2.733 4.125 1.797 5.775 3.19 1.65 1.393 2.933 3.098 3.85 5.115.917 2.017 1.375 4.308 1.375 6.875 0 4.107-.917 7.59-2.75 10.45-1.833 2.86-4.382 5.188-7.645 6.985-3.263 1.797-7.132 3.098-11.605 3.905-4.473.807-9.35 1.21-14.63 1.21.513 3.08 1.632 5.262 3.355 6.545 1.723 1.283 4.455 1.925 8.195 1.925 2.347 0 4.73-.202 7.15-.605 2.42-.403 4.693-1.008 6.82-1.815l1.21 12.87c-2.053.807-4.675 1.54-7.865 2.2-3.19.66-6.655.99-10.395.99-4.547 0-8.378-.642-11.495-1.925-3.117-1.283-5.647-3.025-7.59-5.225-1.943-2.2-3.355-4.767-4.235-7.7-.88-2.933-1.32-6.05-1.32-9.35zm32.01-23.76c-3.74 0-7.022 1.338-9.845 4.015-2.823 2.677-4.675 6.215-5.555 10.615 4.547-.147 8.213-.532 11-1.155 2.787-.623 4.95-1.375 6.49-2.255 1.54-.88 2.567-1.833 3.08-2.86.513-1.027.77-2.053.77-3.08 0-3.52-1.98-5.28-5.94-5.28zm88.88 33.22c1.467 0 2.787-.055 3.96-.165a54.708 54.708 0 0 0 3.19-.385l6.38-26.51h17.16l-9.24 38.17c-2.053.807-5.023 1.595-8.91 2.365-3.887.77-8.837 1.155-14.85 1.155-5.133 0-9.662-.752-13.585-2.255s-7.205-3.648-9.845-6.435c-2.64-2.787-4.62-6.16-5.94-10.12-1.32-3.96-1.98-8.433-1.98-13.42 0-5.72 1.008-11.403 3.025-17.05s5.005-10.688 8.965-15.125c3.96-4.437 8.873-8.048 14.74-10.835 5.867-2.787 12.613-4.18 20.24-4.18 3.52 0 7.242.513 11.165 1.54 3.923 1.027 7.462 2.567 10.615 4.62l-6.16 13.31a30.9 30.9 0 0 0-8.195-3.63c-2.897-.807-5.738-1.21-8.525-1.21-4.473 0-8.452.843-11.935 2.53-3.483 1.687-6.435 3.978-8.855 6.875-2.42 2.897-4.253 6.252-5.5 10.065-1.247 3.813-1.87 7.847-1.87 12.1 0 6.453 1.338 11.165 4.015 14.135 2.677 2.97 6.655 4.455 11.935 4.455zm90.42-11.77a36.528 36.528 0 0 0-.88 12.595c.44 4.217 1.283 7.975 2.53 11.275l-14.63 2.09c-.44-.88-.843-1.723-1.21-2.53a35.708 35.708 0 0 1-1.1-2.75 29.348 29.348 0 0 1-6.82 4.18c-2.493 1.1-5.28 1.65-8.36 1.65-3.667 0-6.802-.642-9.405-1.925-2.603-1.283-4.73-3.007-6.38-5.17-1.65-2.163-2.842-4.693-3.575-7.59-.733-2.897-1.1-5.995-1.1-9.295 0-5.06.898-9.827 2.695-14.3 1.797-4.473 4.29-8.378 7.48-11.715 3.19-3.337 6.948-5.958 11.275-7.865s9.02-2.86 14.08-2.86c.66 0 1.815.037 3.465.11 1.65.073 3.538.238 5.665.495 2.127.257 4.363.678 6.71 1.265a34.806 34.806 0 0 1 6.71 2.42l-7.15 29.92zm-11.44-20.24a45.578 45.578 0 0 0-2.585-.33 30.37 30.37 0 0 0-2.805-.11c-2.493 0-4.822.623-6.985 1.87-2.163 1.247-4.052 2.878-5.665 4.895-1.613 2.017-2.878 4.345-3.795 6.985a24.972 24.972 0 0 0-1.375 8.25c0 3.52.587 6.307 1.76 8.36 1.173 2.053 3.337 3.08 6.49 3.08 1.687 0 3.208-.33 4.565-.99 1.357-.66 2.805-1.76 4.345-3.3.147-1.833.385-3.758.715-5.775a109.2 109.2 0 0 1 1.045-5.555l4.29-17.38zm35.2-10.01c1.247-.367 2.585-.788 4.015-1.265 1.59-.52 3.206-.961 4.84-1.32 1.797-.403 3.813-.733 6.05-.99 2.237-.257 4.822-.385 7.755-.385 3.52 0 6.435.44 8.745 1.32 2.31.88 4.418 2.2 6.325 3.96 2.713-1.54 5.408-2.805 8.085-3.795 2.677-.99 5.812-1.485 9.405-1.485 3.447 0 6.398.458 8.855 1.375 2.457.917 4.492 2.237 6.105 3.96 1.613 1.723 2.787 3.777 3.52 6.16.733 2.383 1.1 5.005 1.1 7.865 0 1.32-.092 2.713-.275 4.18a37.105 37.105 0 0 1-.825 4.4L451.49 190H435.1l7.26-30.58c.22-1.027.458-2.182.715-3.465.257-1.283.385-2.548.385-3.795 0-2.053-.477-3.832-1.43-5.335-.953-1.503-2.823-2.255-5.61-2.255-1.54 0-3.007.275-4.4.825a36.275 36.275 0 0 0-3.74 1.705 6.82 6.82 0 0 1 .22 1.65v1.43c0 1.32-.092 2.713-.275 4.18a37.105 37.105 0 0 1-.825 4.4L419.92 190h-16.39l7.26-30.58c.22-1.027.458-2.182.715-3.465.257-1.283.385-2.548.385-3.795 0-2.053-.477-3.832-1.43-5.335-.953-1.503-2.823-2.255-5.61-2.255-1.173 0-2.163.055-2.97.165-.807.11-1.76.275-2.86.495L388.35 190h-16.39l13.31-55.22zm118.14-3.85c3.52 0 6.563.623 9.13 1.87 2.567 1.247 4.693 2.933 6.38 5.06 1.687 2.127 2.933 4.62 3.74 7.48.807 2.86 1.21 5.94 1.21 9.24 0 5.06-.935 9.845-2.805 14.355s-4.418 8.433-7.645 11.77c-3.227 3.337-7.04 5.977-11.44 7.92-4.4 1.943-9.167 2.915-14.3 2.915-.66 0-1.815-.018-3.465-.055-1.65-.037-3.538-.202-5.665-.495a66.298 66.298 0 0 1-6.765-1.32 34.454 34.454 0 0 1-6.765-2.42l19.03-79.97 17.05-2.64-6.82 28.38a26.21 26.21 0 0 1 4.4-1.54c1.467-.367 3.043-.55 4.73-.55zm-14.3 47.08c2.567 0 4.987-.623 7.26-1.87 2.273-1.247 4.235-2.915 5.885-5.005 1.65-2.09 2.952-4.455 3.905-7.095.953-2.64 1.43-5.39 1.43-8.25 0-3.52-.587-6.27-1.76-8.25-1.173-1.98-3.337-2.97-6.49-2.97-1.027 0-2.365.183-4.015.55-1.65.367-3.135 1.137-4.455 2.31l-7.26 30.14c.44.073.825.147 1.155.22a8.9 8.9 0 0 0 1.045.165c.367.037.807.055 1.32.055h1.98zm42.46-10.67c0-4.693.825-9.24 2.475-13.64 1.65-4.4 3.978-8.305 6.985-11.715s6.655-6.16 10.945-8.25 9.038-3.135 14.245-3.135c2.567 0 4.95.367 7.15 1.1 2.2.733 4.125 1.797 5.775 3.19 1.65 1.393 2.933 3.098 3.85 5.115.917 2.017 1.375 4.308 1.375 6.875 0 4.107-.917 7.59-2.75 10.45-1.833 2.86-4.382 5.188-7.645 6.985-3.263 1.797-7.132 3.098-11.605 3.905-4.473.807-9.35 1.21-14.63 1.21.513 3.08 1.632 5.262 3.355 6.545 1.723 1.283 4.455 1.925 8.195 1.925 2.347 0 4.73-.202 7.15-.605 2.42-.403 4.693-1.008 6.82-1.815l1.21 12.87c-2.053.807-4.675 1.54-7.865 2.2-3.19.66-6.655.99-10.395.99-4.547 0-8.378-.642-11.495-1.925-3.117-1.283-5.647-3.025-7.59-5.225-1.943-2.2-3.355-4.767-4.235-7.7-.88-2.933-1.32-6.05-1.32-9.35zm32.01-23.76c-3.74 0-7.022 1.338-9.845 4.015-2.823 2.677-4.675 6.215-5.555 10.615 4.547-.147 8.213-.532 11-1.155 2.787-.623 4.95-1.375 6.49-2.255 1.54-.88 2.567-1.833 3.08-2.86.513-1.027.77-2.053.77-3.08 0-3.52-1.98-5.28-5.94-5.28zm38.72-25.85l17.05-2.64-4.18 17.05h18.26l-3.3 13.42h-18.15l-4.84 20.24c-.44 1.687-.715 3.263-.825 4.73-.11 1.467.073 2.732.55 3.795.477 1.063 1.302 1.888 2.475 2.475 1.173.587 2.787.88 4.84.88 1.76 0 3.465-.165 5.115-.495 1.65-.33 3.318-.788 5.005-1.375l1.21 12.54c-2.2.807-4.583 1.503-7.15 2.09s-5.61.88-9.13.88c-5.06 0-8.983-.752-11.77-2.255-2.787-1.503-4.767-3.557-5.94-6.16s-1.687-5.592-1.54-8.965c.147-3.373.66-6.93 1.54-10.67l10.78-45.54zm45.76 0l17.05-2.64-4.18 17.05h18.26l-3.3 13.42h-18.15l-4.84 20.24c-.44 1.687-.715 3.263-.825 4.73-.11 1.467.073 2.732.55 3.795.477 1.063 1.302 1.888 2.475 2.475 1.173.587 2.787.88 4.84.88 1.76 0 3.465-.165 5.115-.495 1.65-.33 3.318-.788 5.005-1.375l1.21 12.54c-2.2.807-4.583 1.503-7.15 2.09s-5.61.88-9.13.88c-5.06 0-8.983-.752-11.77-2.255-2.787-1.503-4.767-3.557-5.94-6.16s-1.687-5.592-1.54-8.965c.147-3.373.66-6.93 1.54-10.67l10.78-45.54zm137.24-12.1a34.275 34.275 0 0 1-.385 3.19c-.183 1.1-.348 1.907-.495 2.42-1.173 4.913-3.172 9.588-5.995 14.025-2.823 4.437-5.885 8.195-9.185 11.275l-9.79-4.07a67.736 67.736 0 0 0 6.435-12.705 59.057 59.057 0 0 0 3.465-14.135h15.95zM733.04 190a549.98 549.98 0 0 0-1.1-16.61h-28.6a268.786 268.786 0 0 1-4.62 8.195A169.28 169.28 0 0 0 694.1 190h-17.93c4.415-7.614 8.87-15.204 13.365-22.77 4.143-6.967 8.14-13.53 11.99-19.69a792.945 792.945 0 0 1 11.275-17.545 486.55 486.55 0 0 1 11.22-16.225h15.29c1.173 5.28 2.292 11.128 3.355 17.545a700.11 700.11 0 0 1 2.97 19.69c.916 6.7 1.759 13.411 2.53 20.13.77 6.71 1.485 12.998 2.145 18.865h-17.27zm-5.06-59.51a1796.39 1796.39 0 0 0-9.075 14.63 365.99 365.99 0 0 0-8.635 14.85h20.57c-.39-4.766-.775-9.533-1.155-14.3a237.24 237.24 0 0 0-1.705-15.18zm68.03 46.75c1.247.293 2.787.44 4.62.44 2.86 0 5.463-.532 7.81-1.595 2.347-1.063 4.345-2.548 5.995-4.455 1.65-1.907 2.933-4.198 3.85-6.875.917-2.677 1.375-5.628 1.375-8.855 0-3.153-.697-5.83-2.09-8.03-1.393-2.2-3.813-3.3-7.26-3.3-2.347 0-4.547.22-6.6.66l-7.7 32.01zm39.93-22.55c0 5.353-.88 10.248-2.64 14.685-1.76 4.437-4.198 8.268-7.315 11.495-3.117 3.227-6.857 5.738-11.22 7.535-4.363 1.797-9.112 2.695-14.245 2.695-2.493 0-4.987-.22-7.48-.66l-4.95 19.91h-16.28l18.26-76.12c2.933-.88 6.288-1.668 10.065-2.365 3.777-.697 7.865-1.045 12.265-1.045 4.107 0 7.645.623 10.615 1.87 2.97 1.247 5.408 2.952 7.315 5.115 1.907 2.163 3.318 4.693 4.235 7.59.917 2.897 1.375 5.995 1.375 9.295zm23.65 22.55c1.247.293 2.787.44 4.62.44 2.86 0 5.463-.532 7.81-1.595 2.347-1.063 4.345-2.548 5.995-4.455 1.65-1.907 2.933-4.198 3.85-6.875.917-2.677 1.375-5.628 1.375-8.855 0-3.153-.697-5.83-2.09-8.03-1.393-2.2-3.813-3.3-7.26-3.3-2.347 0-4.547.22-6.6.66l-7.7 32.01zm39.93-22.55c0 5.353-.88 10.248-2.64 14.685-1.76 4.437-4.198 8.268-7.315 11.495-3.117 3.227-6.857 5.738-11.22 7.535-4.363 1.797-9.112 2.695-14.245 2.695-2.493 0-4.987-.22-7.48-.66l-4.95 19.91h-16.28l18.26-76.12c2.933-.88 6.288-1.668 10.065-2.365 3.777-.697 7.865-1.045 12.265-1.045 4.107 0 7.645.623 10.615 1.87 2.97 1.247 5.408 2.952 7.315 5.115 1.907 2.163 3.318 4.693 4.235 7.59.917 2.897 1.375 5.995 1.375 9.295zm58.63 10.34a36.528 36.528 0 0 0-.88 12.595c.44 4.217 1.283 7.975 2.53 11.275l-14.63 2.09c-.44-.88-.843-1.723-1.21-2.53a35.708 35.708 0 0 1-1.1-2.75 29.348 29.348 0 0 1-6.82 4.18c-2.493 1.1-5.28 1.65-8.36 1.65-3.667 0-6.802-.642-9.405-1.925-2.603-1.283-4.73-3.007-6.38-5.17-1.65-2.163-2.842-4.693-3.575-7.59-.733-2.897-1.1-5.995-1.1-9.295 0-5.06.898-9.827 2.695-14.3 1.797-4.473 4.29-8.378 7.48-11.715 3.19-3.337 6.948-5.958 11.275-7.865s9.02-2.86 14.08-2.86c.66 0 1.815.037 3.465.11 1.65.073 3.538.238 5.665.495 2.127.257 4.363.678 6.71 1.265a34.806 34.806 0 0 1 6.71 2.42l-7.15 29.92zm-11.44-20.24a45.578 45.578 0 0 0-2.585-.33 30.37 30.37 0 0 0-2.805-.11c-2.493 0-4.822.623-6.985 1.87-2.163 1.247-4.052 2.878-5.665 4.895-1.613 2.017-2.878 4.345-3.795 6.985a24.972 24.972 0 0 0-1.375 8.25c0 3.52.587 6.307 1.76 8.36 1.173 2.053 3.337 3.08 6.49 3.08 1.687 0 3.208-.33 4.565-.99 1.357-.66 2.805-1.76 4.345-3.3.147-1.833.385-3.758.715-5.775a109.2 109.2 0 0 1 1.045-5.555l4.29-17.38zm66.11 1.43c-1.445-.361-2.894-.71-4.345-1.045-1.43-.33-3.538-.495-6.325-.495-1.027 0-2.163.092-3.41.275-1.247.183-2.273.385-3.08.605L984.99 190H968.6l13.2-54.78c3.153-1.027 6.692-1.998 10.615-2.915s8.342-1.375 13.255-1.375c1.833 0 3.868.165 6.105.495 2.237.33 4.198.862 5.885 1.595l-4.84 13.2zm17.49-28.49l17.05-2.64-4.18 17.05h18.26l-3.3 13.42h-18.15l-4.84 20.24c-.44 1.687-.715 3.263-.825 4.73-.11 1.467.073 2.732.55 3.795.477 1.063 1.302 1.888 2.475 2.475 1.173.587 2.787.88 4.84.88 1.76 0 3.465-.165 5.115-.495 1.65-.33 3.318-.788 5.005-1.375l1.21 12.54c-2.2.807-4.583 1.503-7.15 2.09s-5.61.88-9.13.88c-5.06 0-8.983-.752-11.77-2.255-2.787-1.503-4.767-3.557-5.94-6.16s-1.687-5.592-1.54-8.965c.147-3.373.66-6.93 1.54-10.67l10.78-45.54zM177.992 404.168c-2.976.096-5.748.312-8.316.648-2.568.336-4.92.96-7.056 1.872-2.136.912-4.008 2.136-5.616 3.672-1.608 1.536-2.94 3.528-3.996 5.976 1.248-.672 2.7-1.164 4.356-1.476 1.656-.312 3.204-.468 4.644-.468 1.776 0 3.444.276 5.004.828a11.305 11.305 0 0 1 4.104 2.52c1.176 1.128 2.1 2.532 2.772 4.212.672 1.68 1.008 3.624 1.008 5.832 0 3.12-.504 5.868-1.512 8.244-1.008 2.376-2.376 4.38-4.104 6.012-1.728 1.632-3.744 2.868-6.048 3.708-2.304.84-4.728 1.26-7.272 1.26-2.256 0-4.344-.384-6.264-1.152a14.232 14.232 0 0 1-5.004-3.348c-1.416-1.464-2.532-3.288-3.348-5.472-.816-2.184-1.224-4.716-1.224-7.596 0-4.224.72-8.364 2.16-12.42 1.44-4.056 3.648-7.668 6.624-10.836 2.976-3.168 6.744-5.724 11.304-7.668 4.56-1.944 9.96-2.916 16.2-2.916h1.332c.504 0 1.02.024 1.548.072l-1.296 8.496zm-13.32 24.336c0-2.304-.624-3.888-1.872-4.752-1.248-.864-2.736-1.296-4.464-1.296-1.2 0-2.412.156-3.636.468a25.97 25.97 0 0 0-3.42 1.116 17.234 17.234 0 0 0-.936 5.616c0 2.304.528 4.284 1.584 5.94 1.056 1.656 2.688 2.484 4.896 2.484 2.304 0 4.188-.84 5.652-2.52 1.464-1.68 2.196-4.032 2.196-7.056zm17.28 6.408a21.548 21.548 0 0 0 5.4 2.304c1.92.528 3.768.792 5.544.792 3.456 0 6.096-.648 7.92-1.944 1.824-1.296 2.736-3.312 2.736-6.048a5.522 5.522 0 0 0-.936-3.132c-.624-.936-1.632-1.728-3.024-2.376-1.392-.648-3.252-1.152-5.58-1.512-2.328-.36-5.172-.54-8.532-.54 1.587-4.474 3.1-8.975 4.536-13.5 1.44-4.536 2.712-8.82 3.816-12.852h26.64l-2.16 8.928h-17.784a158.86 158.86 0 0 1-1.548 5.22 118.642 118.642 0 0 1-1.476 4.428c2.88.24 5.364.78 7.452 1.62 2.088.84 3.816 1.908 5.184 3.204 1.368 1.296 2.388 2.772 3.06 4.428.672 1.656 1.008 3.42 1.008 5.292 0 2.688-.444 5.136-1.332 7.344a14.435 14.435 0 0 1-3.996 5.616c-1.776 1.536-3.984 2.724-6.624 3.564-2.64.84-5.688 1.26-9.144 1.26-1.008 0-2.16-.072-3.456-.216a50.579 50.579 0 0 1-3.996-.612 33.137 33.137 0 0 1-4.032-1.044 23.964 23.964 0 0 1-3.636-1.512l3.96-8.712zm90.216-5.256a23.91 23.91 0 0 0-.576 8.244c.288 2.76.84 5.22 1.656 7.38l-9.576 1.368c-.274-.547-.538-1.1-.792-1.656-.24-.528-.48-1.128-.72-1.8a19.21 19.21 0 0 1-4.464 2.736c-1.632.72-3.456 1.08-5.472 1.08-2.4 0-4.452-.42-6.156-1.26-1.704-.84-3.096-1.968-4.176-3.384s-1.86-3.072-2.34-4.968c-.48-1.896-.72-3.924-.72-6.084 0-3.312.588-6.432 1.764-9.36 1.176-2.928 2.808-5.484 4.896-7.668s4.548-3.9 7.38-5.148c2.832-1.248 5.904-1.872 9.216-1.872.432 0 1.188.024 2.268.072 1.08.048 2.316.156 3.708.324a35.88 35.88 0 0 1 4.392.828c1.536.384 3 .912 4.392 1.584l-4.68 19.584zm-7.488-13.248a29.833 29.833 0 0 0-1.692-.216 19.802 19.802 0 0 0-1.836-.072 9.004 9.004 0 0 0-4.572 1.224 13.094 13.094 0 0 0-3.708 3.204c-1.056 1.32-1.884 2.844-2.484 4.572-.6 1.728-.9 3.528-.9 5.4 0 2.304.384 4.128 1.152 5.472.768 1.344 2.184 2.016 4.248 2.016 1.104 0 2.1-.216 2.988-.648.888-.432 1.836-1.152 2.844-2.16.096-1.2.252-2.46.468-3.78.216-1.32.444-2.532.684-3.636l2.808-11.376zM288.44 446c-1.248-4.8-2.376-10.404-3.384-16.812-1.008-6.408-1.704-13.428-2.088-21.06h11.088c.114 4.3.306 8.596.576 12.888.144 2.256.312 4.452.504 6.588s.408 4.068.648 5.796c1.056-1.44 2.244-3.216 3.564-5.328 1.32-2.112 2.604-4.32 3.852-6.624a109.96 109.96 0 0 0 3.456-6.948c1.056-2.328 1.872-4.452 2.448-6.372h11.376c-1.248 3.408-2.796 6.912-4.644 10.512a138.2 138.2 0 0 1-5.94 10.44 143.475 143.475 0 0 1-6.444 9.432c-2.184 2.928-4.212 5.424-6.084 7.488h-8.928zm32.04-14.832c0-3.072.54-6.048 1.62-8.928 1.08-2.88 2.604-5.436 4.572-7.668s4.356-4.032 7.164-5.4c2.808-1.368 5.916-2.052 9.324-2.052 1.68 0 3.24.24 4.68.72 1.44.48 2.7 1.176 3.78 2.088a9.425 9.425 0 0 1 2.52 3.348c.6 1.32.9 2.82.9 4.5 0 2.688-.6 4.968-1.8 6.84-1.2 1.872-2.868 3.396-5.004 4.572-2.136 1.176-4.668 2.028-7.596 2.556s-6.12.792-9.576.792c.336 2.016 1.068 3.444 2.196 4.284 1.128.84 2.916 1.26 5.364 1.26 1.536 0 3.096-.132 4.68-.396a23.408 23.408 0 0 0 4.464-1.188l.792 8.424c-1.344.528-3.06 1.008-5.148 1.44-2.088.432-4.356.648-6.804.648-2.976 0-5.484-.42-7.524-1.26-2.04-.84-3.696-1.98-4.968-3.42-1.272-1.44-2.196-3.12-2.772-5.04-.576-1.92-.864-3.96-.864-6.12zm20.952-15.552c-2.448 0-4.596.876-6.444 2.628-1.848 1.752-3.06 4.068-3.636 6.948 2.976-.096 5.376-.348 7.2-.756 1.824-.408 3.24-.9 4.248-1.476s1.68-1.2 2.016-1.872c.336-.672.504-1.344.504-2.016 0-2.304-1.296-3.456-3.888-3.456zm23.76-5.76c.816-.24 1.716-.516 2.7-.828.984-.312 2.088-.6 3.312-.864a41.106 41.106 0 0 1 4.104-.648c1.512-.168 3.228-.252 5.148-.252 5.664 0 9.552 1.632 11.664 4.896 2.112 3.264 2.472 7.728 1.08 13.392L388.304 446h-10.728l4.752-20.016c.288-1.248.516-2.46.684-3.636.168-1.176.156-2.208-.036-3.096a3.66 3.66 0 0 0-1.332-2.16c-.696-.552-1.764-.828-3.204-.828-1.392 0-2.808.144-4.248.432L367.208 446H356.48l8.712-36.144zm71.784-1.728l-5.112 21.528a23.91 23.91 0 0 0-.576 8.244c.288 2.76.84 5.22 1.656 7.38l-9.576 1.368a35.388 35.388 0 0 1-1.512-3.528 20.138 20.138 0 0 1-4.536 2.664c-1.68.72-3.552 1.08-5.616 1.08-2.832 0-5.124-.516-6.876-1.548-1.752-1.032-3.06-2.4-3.924-4.104-.864-1.704-1.332-3.66-1.404-5.868-.072-2.208.18-4.464.756-6.768l4.896-20.448h10.728l-4.824 20.304a45.506 45.506 0 0 0-.612 3.24c-.168 1.104-.18 2.124-.036 3.06.144.936.516 1.704 1.116 2.304.6.6 1.548.9 2.844.9 1.104 0 2.124-.204 3.06-.612.936-.408 1.932-1.116 2.988-2.124.096-1.2.252-2.46.468-3.78.216-1.32.444-2.532.684-3.636l4.68-19.656h10.728zm4.32 23.04c0-3.072.54-6.048 1.62-8.928 1.08-2.88 2.604-5.436 4.572-7.668s4.356-4.032 7.164-5.4c2.808-1.368 5.916-2.052 9.324-2.052 1.68 0 3.24.24 4.68.72 1.44.48 2.7 1.176 3.78 2.088a9.425 9.425 0 0 1 2.52 3.348c.6 1.32.9 2.82.9 4.5 0 2.688-.6 4.968-1.8 6.84-1.2 1.872-2.868 3.396-5.004 4.572-2.136 1.176-4.668 2.028-7.596 2.556s-6.12.792-9.576.792c.336 2.016 1.068 3.444 2.196 4.284 1.128.84 2.916 1.26 5.364 1.26 1.536 0 3.096-.132 4.68-.396a23.408 23.408 0 0 0 4.464-1.188l.792 8.424c-1.344.528-3.06 1.008-5.148 1.44-2.088.432-4.356.648-6.804.648-2.976 0-5.484-.42-7.524-1.26-2.04-.84-3.696-1.98-4.968-3.42-1.272-1.44-2.196-3.12-2.772-5.04-.576-1.92-.864-3.96-.864-6.12zm20.952-15.552c-2.448 0-4.596.876-6.444 2.628-1.848 1.752-3.06 4.068-3.636 6.948 2.976-.096 5.376-.348 7.2-.756 1.824-.408 3.24-.9 4.248-1.476s1.68-1.2 2.016-1.872c.336-.672.504-1.344.504-2.016 0-2.304-1.296-3.456-3.888-3.456zm68.256 20.88L528.2 446h-33.264l11.952-49.896h11.232l-9.72 40.392h22.104zm5.4-5.328c0-3.072.54-6.048 1.62-8.928 1.08-2.88 2.604-5.436 4.572-7.668s4.356-4.032 7.164-5.4c2.808-1.368 5.916-2.052 9.324-2.052 1.68 0 3.24.24 4.68.72 1.44.48 2.7 1.176 3.78 2.088a9.425 9.425 0 0 1 2.52 3.348c.6 1.32.9 2.82.9 4.5 0 2.688-.6 4.968-1.8 6.84-1.2 1.872-2.868 3.396-5.004 4.572-2.136 1.176-4.668 2.028-7.596 2.556s-6.12.792-9.576.792c.336 2.016 1.068 3.444 2.196 4.284 1.128.84 2.916 1.26 5.364 1.26 1.536 0 3.096-.132 4.68-.396a23.408 23.408 0 0 0 4.464-1.188l.792 8.424c-1.344.528-3.06 1.008-5.148 1.44-2.088.432-4.356.648-6.804.648-2.976 0-5.484-.42-7.524-1.26-2.04-.84-3.696-1.98-4.968-3.42-1.272-1.44-2.196-3.12-2.772-5.04-.576-1.92-.864-3.96-.864-6.12zm20.952-15.552c-2.448 0-4.596.876-6.444 2.628-1.848 1.752-3.06 4.068-3.636 6.948 2.976-.096 5.376-.348 7.2-.756 1.824-.408 3.24-.9 4.248-1.476s1.68-1.2 2.016-1.872c.336-.672.504-1.344.504-2.016 0-2.304-1.296-3.456-3.888-3.456zm10.8-20.88l-12.744 9.792-4.32-4.464 11.52-11.592 5.544 6.264zm21.384 52.272c-2.544 0-4.752-.384-6.624-1.152-1.872-.768-3.42-1.848-4.644-3.24-1.224-1.392-2.148-3.036-2.772-4.932-.624-1.896-.936-3.996-.936-6.3 0-2.88.468-5.76 1.404-8.64.936-2.88 2.316-5.472 4.14-7.776 1.824-2.304 4.056-4.188 6.696-5.652 2.64-1.464 5.664-2.196 9.072-2.196 2.496 0 4.692.384 6.588 1.152 1.896.768 3.456 1.848 4.68 3.24 1.224 1.392 2.148 3.036 2.772 4.932.624 1.896.936 3.996.936 6.3 0 2.88-.456 5.76-1.368 8.64-.912 2.88-2.256 5.472-4.032 7.776-1.776 2.304-3.996 4.188-6.66 5.652-2.664 1.464-5.748 2.196-9.252 2.196zm5.328-30.816c-1.584 0-2.976.456-4.176 1.368-1.2.912-2.208 2.064-3.024 3.456a17.05 17.05 0 0 0-1.836 4.572c-.408 1.656-.612 3.228-.612 4.716 0 2.448.384 4.332 1.152 5.652.768 1.32 2.16 1.98 4.176 1.98 1.584 0 2.976-.456 4.176-1.368 1.2-.912 2.208-2.064 3.024-3.456a17.05 17.05 0 0 0 1.836-4.572c.408-1.656.612-3.228.612-4.716 0-2.448-.384-4.332-1.152-5.652-.768-1.32-2.16-1.98-4.176-1.98zm27.576-6.336c.816-.24 1.716-.516 2.7-.828.984-.312 2.088-.6 3.312-.864a41.106 41.106 0 0 1 4.104-.648c1.512-.168 3.228-.252 5.148-.252 5.664 0 9.552 1.632 11.664 4.896 2.112 3.264 2.472 7.728 1.08 13.392L645.056 446h-10.728l4.752-20.016c.288-1.248.516-2.46.684-3.636.168-1.176.156-2.208-.036-3.096a3.66 3.66 0 0 0-1.332-2.16c-.696-.552-1.764-.828-3.204-.828-1.392 0-2.808.144-4.248.432L623.96 446h-10.728l8.712-36.144zm75.24 27.504c.96 0 1.824-.036 2.592-.108a35.808 35.808 0 0 0 2.088-.252l4.176-17.352h11.232l-6.048 24.984c-1.344.528-3.288 1.044-5.832 1.548s-5.784.756-9.72.756c-3.36 0-6.324-.492-8.892-1.476-2.568-.984-4.716-2.388-6.444-4.212-1.728-1.824-3.024-4.032-3.888-6.624-.864-2.592-1.296-5.52-1.296-8.784 0-3.744.66-7.464 1.98-11.16a29.75 29.75 0 0 1 5.868-9.9c2.592-2.904 5.808-5.268 9.648-7.092 3.84-1.824 8.256-2.736 13.248-2.736 2.304 0 4.74.336 7.308 1.008 2.568.672 4.884 1.68 6.948 3.024l-4.032 8.712a20.226 20.226 0 0 0-5.364-2.376c-1.896-.528-3.756-.792-5.58-.792-2.928 0-5.532.552-7.812 1.656-2.28 1.104-4.212 2.604-5.796 4.5-1.584 1.896-2.784 4.092-3.6 6.588-.816 2.496-1.224 5.136-1.224 7.92 0 4.224.876 7.308 2.628 9.252 1.752 1.944 4.356 2.916 7.812 2.916zm59.184-7.704a23.91 23.91 0 0 0-.576 8.244c.288 2.76.84 5.22 1.656 7.38l-9.576 1.368c-.274-.547-.538-1.1-.792-1.656-.24-.528-.48-1.128-.72-1.8a19.21 19.21 0 0 1-4.464 2.736c-1.632.72-3.456 1.08-5.472 1.08-2.4 0-4.452-.42-6.156-1.26-1.704-.84-3.096-1.968-4.176-3.384s-1.86-3.072-2.34-4.968c-.48-1.896-.72-3.924-.72-6.084 0-3.312.588-6.432 1.764-9.36 1.176-2.928 2.808-5.484 4.896-7.668s4.548-3.9 7.38-5.148c2.832-1.248 5.904-1.872 9.216-1.872.432 0 1.188.024 2.268.072 1.08.048 2.316.156 3.708.324a35.88 35.88 0 0 1 4.392.828c1.536.384 3 .912 4.392 1.584l-4.68 19.584zm-7.488-13.248a29.833 29.833 0 0 0-1.692-.216 19.802 19.802 0 0 0-1.836-.072 9.004 9.004 0 0 0-4.572 1.224 13.094 13.094 0 0 0-3.708 3.204c-1.056 1.32-1.884 2.844-2.484 4.572-.6 1.728-.9 3.528-.9 5.4 0 2.304.384 4.128 1.152 5.472.768 1.344 2.184 2.016 4.248 2.016 1.104 0 2.1-.216 2.988-.648.888-.432 1.836-1.152 2.844-2.16.096-1.2.252-2.46.468-3.78.216-1.32.444-2.532.684-3.636l2.808-11.376zm23.04-6.552a77.5 77.5 0 0 0 2.628-.828c.936-.312 1.992-.6 3.168-.864a37.93 37.93 0 0 1 3.96-.648c1.464-.168 3.156-.252 5.076-.252 2.304 0 4.212.288 5.724.864 1.512.576 2.892 1.44 4.14 2.592 1.694-.97 3.464-1.8 5.292-2.484 1.752-.648 3.804-.972 6.156-.972 2.256 0 4.188.3 5.796.9 1.608.6 2.94 1.464 3.996 2.592 1.056 1.128 1.824 2.472 2.304 4.032.48 1.56.72 3.276.72 5.148 0 .864-.06 1.776-.18 2.736-.12.96-.3 1.92-.54 2.88L815.264 446h-10.728l4.752-20.016c.144-.672.3-1.428.468-2.268.168-.84.252-1.668.252-2.484 0-1.344-.312-2.508-.936-3.492-.624-.984-1.848-1.476-3.672-1.476-1.008 0-1.968.18-2.88.54-.912.36-1.728.732-2.448 1.116.096.384.144.744.144 1.08v.936c0 .864-.06 1.776-.18 2.736-.12.96-.3 1.92-.54 2.88L794.6 446h-10.728l4.752-20.016c.144-.672.3-1.428.468-2.268.168-.84.252-1.668.252-2.484 0-1.344-.312-2.508-.936-3.492-.624-.984-1.848-1.476-3.672-1.476-.768 0-1.416.036-1.944.108-.528.072-1.152.18-1.872.324L773.936 446h-10.728l8.712-36.144zm77.328-2.52c2.304 0 4.296.408 5.976 1.224 1.68.816 3.072 1.92 4.176 3.312s1.92 3.024 2.448 4.896c.528 1.872.792 3.888.792 6.048 0 3.312-.612 6.444-1.836 9.396-1.224 2.952-2.892 5.52-5.004 7.704-2.112 2.184-4.608 3.912-7.488 5.184-2.88 1.272-6 1.908-9.36 1.908-.432 0-1.188-.012-2.268-.036-1.08-.024-2.316-.132-3.708-.324-1.49-.211-2.968-.5-4.428-.864a22.552 22.552 0 0 1-4.428-1.584l12.456-52.344 11.16-1.728-4.464 18.576c.96-.432 1.92-.768 2.88-1.008s1.992-.36 3.096-.36zm-9.36 30.816c1.68 0 3.264-.408 4.752-1.224a12.574 12.574 0 0 0 3.852-3.276 16.449 16.449 0 0 0 2.556-4.644c.624-1.728.936-3.528.936-5.4 0-2.304-.384-4.104-1.152-5.4-.768-1.296-2.184-1.944-4.248-1.944-.672 0-1.548.12-2.628.36s-2.052.744-2.916 1.512l-4.752 19.728c.288.048.54.096.756.144.216.048.444.084.684.108.24.024.528.036.864.036h1.296zm27.792-6.984c0-3.072.54-6.048 1.62-8.928 1.08-2.88 2.604-5.436 4.572-7.668s4.356-4.032 7.164-5.4c2.808-1.368 5.916-2.052 9.324-2.052 1.68 0 3.24.24 4.68.72 1.44.48 2.7 1.176 3.78 2.088a9.425 9.425 0 0 1 2.52 3.348c.6 1.32.9 2.82.9 4.5 0 2.688-.6 4.968-1.8 6.84-1.2 1.872-2.868 3.396-5.004 4.572-2.136 1.176-4.668 2.028-7.596 2.556s-6.12.792-9.576.792c.336 2.016 1.068 3.444 2.196 4.284 1.128.84 2.916 1.26 5.364 1.26 1.536 0 3.096-.132 4.68-.396a23.408 23.408 0 0 0 4.464-1.188l.792 8.424c-1.344.528-3.06 1.008-5.148 1.44-2.088.432-4.356.648-6.804.648-2.976 0-5.484-.42-7.524-1.26-2.04-.84-3.696-1.98-4.968-3.42-1.272-1.44-2.196-3.12-2.772-5.04-.576-1.92-.864-3.96-.864-6.12zm20.952-15.552c-2.448 0-4.596.876-6.444 2.628-1.848 1.752-3.06 4.068-3.636 6.948 2.976-.096 5.376-.348 7.2-.756 1.824-.408 3.24-.9 4.248-1.476s1.68-1.2 2.016-1.872c.336-.672.504-1.344.504-2.016 0-2.304-1.296-3.456-3.888-3.456zm25.344-16.92l11.16-1.728-2.736 11.16h11.952l-2.16 8.784h-11.88l-3.168 13.248a17.511 17.511 0 0 0-.54 3.096c-.072.96.048 1.788.36 2.484s.852 1.236 1.62 1.62c.768.384 1.824.576 3.168.576 1.152 0 2.268-.108 3.348-.324a24.743 24.743 0 0 0 3.276-.9l.792 8.208c-1.44.528-3 .984-4.68 1.368-1.68.384-3.672.576-5.976.576-3.312 0-5.88-.492-7.704-1.476-1.824-.984-3.12-2.328-3.888-4.032-.768-1.704-1.104-3.66-1.008-5.868.096-2.208.432-4.536 1.008-6.984l7.056-29.808zm29.952 0l11.16-1.728-2.736 11.16h11.952l-2.16 8.784h-11.88l-3.168 13.248a17.511 17.511 0 0 0-.54 3.096c-.072.96.048 1.788.36 2.484s.852 1.236 1.62 1.62c.768.384 1.824.576 3.168.576 1.152 0 2.268-.108 3.348-.324a24.743 24.743 0 0 0 3.276-.9l.792 8.208c-1.44.528-3 .984-4.68 1.368-1.68.384-3.672.576-5.976.576-3.312 0-5.88-.492-7.704-1.476-1.824-.984-3.12-2.328-3.888-4.032-.768-1.704-1.104-3.66-1.008-5.868.096-2.208.432-4.536 1.008-6.984l7.056-29.808zm53.712 30.96a23.91 23.91 0 0 0-.576 8.244c.288 2.76.84 5.22 1.656 7.38l-9.576 1.368c-.274-.547-.538-1.1-.792-1.656-.24-.528-.48-1.128-.72-1.8a19.21 19.21 0 0 1-4.464 2.736c-1.632.72-3.456 1.08-5.472 1.08-2.4 0-4.452-.42-6.156-1.26-1.704-.84-3.096-1.968-4.176-3.384s-1.86-3.072-2.34-4.968c-.48-1.896-.72-3.924-.72-6.084 0-3.312.588-6.432 1.764-9.36 1.176-2.928 2.808-5.484 4.896-7.668s4.548-3.9 7.38-5.148c2.832-1.248 5.904-1.872 9.216-1.872.432 0 1.188.024 2.268.072 1.08.048 2.316.156 3.708.324a35.88 35.88 0 0 1 4.392.828c1.536.384 3 .912 4.392 1.584l-4.68 19.584zm-7.488-13.248a29.833 29.833 0 0 0-1.692-.216 19.802 19.802 0 0 0-1.836-.072 9.004 9.004 0 0 0-4.572 1.224 13.094 13.094 0 0 0-3.708 3.204c-1.056 1.32-1.884 2.844-2.484 4.572-.6 1.728-.9 3.528-.9 5.4 0 2.304.384 4.128 1.152 5.472.768 1.344 2.184 2.016 4.248 2.016 1.104 0 2.1-.216 2.988-.648.888-.432 1.836-1.152 2.844-2.16.096-1.2.252-2.46.468-3.78.216-1.32.444-2.532.684-3.636l2.808-11.376zM149.87 537.747a121.14 121.14 0 0 0 6.499-2.667 99.647 99.647 0 0 0 6.742-3.298 118.776 118.776 0 0 0 6.547-3.784 48.073 48.073 0 0 0 5.82-4.219h10.088L169.367 591h-14.453l11.64-48.403a59.967 59.967 0 0 1-7.372 3.54 117.11 117.11 0 0 1-7.566 2.765l-1.746-11.155zM198.661 591c1.229-4.785 3.007-9.748 5.335-14.89a151.039 151.039 0 0 1 7.857-15.034c2.91-4.883 5.982-9.49 9.215-13.823 3.233-4.333 6.37-8.083 9.409-11.252H201.28l3.007-12.222h47.045l-2.522 10.476c-2.457 2.07-5.383 5.076-8.779 9.021-3.395 3.945-6.806 8.455-10.233 13.532-3.427 5.076-6.628 10.54-9.603 16.393-2.975 5.852-5.27 11.785-6.887 17.799h-14.647zm87.979-35.696c2.716 1.293 4.818 3.282 6.305 5.966 1.487 2.683 2.231 5.61 2.231 8.778 0 2.651-.55 5.303-1.649 7.954-1.1 2.651-2.845 5.044-5.238 7.178-2.393 2.134-5.432 3.864-9.118 5.19-3.686 1.325-8.116 1.988-13.289 1.988-7.372 0-14-1.52-19.885-4.559l5.238-11.446c1.875 1.293 4.203 2.344 6.984 3.153a30.426 30.426 0 0 0 8.536 1.212c1.81 0 3.573-.194 5.286-.582 1.714-.388 3.218-1.035 4.511-1.94a10.1 10.1 0 0 0 3.104-3.492c.776-1.423 1.164-3.169 1.164-5.238 0-2.651-1.083-4.656-3.25-6.014-2.166-1.358-5.06-2.037-8.681-2.037h-6.208l2.813-11.446h6.984c1.358 0 2.78-.13 4.268-.388 1.487-.259 2.845-.727 4.074-1.407a9.136 9.136 0 0 0 3.055-2.716c.809-1.131 1.213-2.602 1.213-4.413 0-2.263-.776-3.928-2.328-4.995-1.552-1.068-3.589-1.601-6.111-1.601-2.005 0-4.22.356-6.644 1.067-2.426.711-4.931 1.746-7.518 3.104l-3.686-10.864c3.169-1.81 6.434-3.185 9.797-4.122 3.363-.938 6.855-1.407 10.476-1.407 3.427 0 6.434.469 9.021 1.407 2.587.937 4.737 2.182 6.45 3.734 1.714 1.552 2.991 3.314 3.832 5.286.84 1.973 1.261 3.994 1.261 6.063 0 1.681-.275 3.346-.825 4.995a16.851 16.851 0 0 1-2.424 4.657c-1.068 1.455-2.425 2.78-4.075 3.976-1.649 1.197-3.54 2.183-5.674 2.959zm38.024 24.638c2.07 0 3.977-.614 5.723-1.843s3.282-2.845 4.608-4.85c1.325-2.005 2.49-4.284 3.491-6.839 1-2.544 1.826-5.153 2.474-7.808a70.716 70.716 0 0 0 1.455-7.76c.323-2.522.485-4.753.485-6.693 0-3.298-.501-5.723-1.503-7.275-1.003-1.552-2.539-2.328-4.608-2.328a9.883 9.883 0 0 0-5.82 1.843c-1.746 1.229-3.298 2.845-4.656 4.85-1.358 2.005-2.538 4.3-3.54 6.887a63.123 63.123 0 0 0-2.474 7.857 70.716 70.716 0 0 0-1.455 7.76c-.323 2.522-.485 4.753-.485 6.693 0 3.363.517 5.788 1.552 7.275 1.035 1.487 2.619 2.231 4.753 2.231zm-2.231 12.416c-3.169 0-5.852-.566-8.051-1.697-2.199-1.132-3.993-2.636-5.384-4.511-1.39-1.875-2.392-3.993-3.007-6.353a28.956 28.956 0 0 1-.921-7.324c0-7.372.824-14.13 2.474-20.273 1.649-6.143 3.944-11.446 6.887-15.908 2.942-4.462 6.482-7.922 10.621-10.379s8.73-3.686 13.774-3.686c3.169 0 5.852.566 8.051 1.697 2.199 1.132 3.993 2.636 5.383 4.511 1.39 1.875 2.393 3.993 3.007 6.354a28.92 28.92 0 0 1 .922 7.323c0 7.372-.824 14.13-2.474 20.273-1.649 6.143-3.944 11.446-6.886 15.908-2.943 4.462-6.483 7.922-10.622 10.379s-8.73 3.686-13.774 3.686zm57.327-12.416c2.07 0 3.977-.614 5.723-1.843s3.282-2.845 4.608-4.85c1.325-2.005 2.49-4.284 3.491-6.839 1-2.544 1.826-5.153 2.474-7.808a70.716 70.716 0 0 0 1.455-7.76c.323-2.522.485-4.753.485-6.693 0-3.298-.501-5.723-1.503-7.275-1.003-1.552-2.539-2.328-4.608-2.328a9.883 9.883 0 0 0-5.82 1.843c-1.746 1.229-3.298 2.845-4.656 4.85-1.358 2.005-2.538 4.3-3.54 6.887a63.123 63.123 0 0 0-2.474 7.857 70.716 70.716 0 0 0-1.455 7.76c-.323 2.522-.485 4.753-.485 6.693 0 3.363.517 5.788 1.552 7.275 1.035 1.487 2.619 2.231 4.753 2.231zm-2.231 12.416c-3.169 0-5.852-.566-8.051-1.697-2.199-1.132-3.993-2.636-5.384-4.511-1.39-1.875-2.392-3.993-3.007-6.353a28.956 28.956 0 0 1-.921-7.324c0-7.372.824-14.13 2.474-20.273 1.649-6.143 3.944-11.446 6.887-15.908 2.942-4.462 6.482-7.922 10.621-10.379s8.73-3.686 13.774-3.686c3.169 0 5.852.566 8.051 1.697 2.199 1.132 3.993 2.636 5.383 4.511 1.39 1.875 2.393 3.993 3.007 6.354a28.92 28.92 0 0 1 .922 7.323c0 7.372-.824 14.13-2.474 20.273-1.649 6.143-3.944 11.446-6.886 15.908-2.943 4.462-6.483 7.922-10.622 10.379s-8.73 3.686-13.774 3.686zm93.993-69.355c4.333 0 8.116.517 11.349 1.552 3.233 1.035 5.917 2.425 8.051 4.171 2.134 1.746 3.718 3.8 4.753 6.16a18.287 18.287 0 0 1 1.552 7.42c0 2.134-.242 4.236-.727 6.305-.486 2.07-1.39 4.042-2.716 5.917-1.326 1.875-3.104 3.605-5.335 5.19-2.232 1.584-5.093 2.926-8.585 4.025 1.81 3.363 3.67 7.437 5.578 12.222A232.478 232.478 0 0 1 490.825 591h-16.199c-1.487-4.462-2.99-8.875-4.51-13.24-1.52-4.366-3.218-8.132-5.093-11.301h-7.566L451.54 591h-15.035l15.811-66.251a98.078 98.078 0 0 1 10.185-1.358c3.298-.259 6.305-.388 9.021-.388zm-.485 12.804c-1.1 0-2.231.032-3.395.097-1.164.065-2.134.13-2.91.194l-4.365 18.43h5.141c3.104 0 5.723-.291 7.857-.873 2.134-.582 3.848-1.358 5.141-2.328 1.293-.97 2.215-2.085 2.765-3.346.55-1.262.824-2.539.824-3.832 0-1.1-.162-2.15-.485-3.153-.323-1.002-.905-1.891-1.746-2.667-.84-.776-1.972-1.39-3.395-1.843-1.423-.453-3.233-.679-5.432-.679zm69.549-.582c-2.975 0-5.74.776-8.293 2.328-2.555 1.552-4.786 3.621-6.693 6.208-1.908 2.587-3.395 5.561-4.462 8.924a34.113 34.113 0 0 0-1.601 10.379c0 4.85 1.018 8.778 3.055 11.786 2.038 3.007 5.352 4.51 9.943 4.51 2.975 0 5.74-.776 8.293-2.328 2.555-1.552 4.786-3.621 6.693-6.208 1.908-2.587 3.395-5.545 4.463-8.875 1.067-3.33 1.6-6.807 1.6-10.428 0-4.85-1.018-8.778-3.055-11.785-2.038-3.008-5.352-4.511-9.943-4.511zm-9.603 57.133c-3.945 0-7.566-.647-10.864-1.94-3.298-1.293-6.143-3.152-8.536-5.577-2.393-2.426-4.252-5.384-5.578-8.876-1.325-3.492-1.988-7.437-1.988-11.834 0-5.044.873-10.056 2.619-15.035 1.746-4.98 4.252-9.457 7.517-13.434 3.266-3.978 7.26-7.21 11.98-9.7 4.72-2.49 10.056-3.735 16.005-3.735 3.945 0 7.566.647 10.864 1.94 3.298 1.293 6.143 3.152 8.536 5.577 2.393 2.426 4.252 5.384 5.577 8.876 1.326 3.492 1.989 7.437 1.989 11.834 0 5.044-.857 10.072-2.57 15.084-1.714 5.011-4.204 9.505-7.47 13.482-3.265 3.978-7.258 7.195-11.979 9.652-4.72 2.457-10.088 3.686-16.102 3.686zm94.09-4.268c-2.651 1.293-5.594 2.328-8.827 3.104-3.233.776-7.178 1.164-11.834 1.164-4.01 0-7.68-.663-11.01-1.988-3.33-1.326-6.175-3.218-8.536-5.675-2.36-2.457-4.187-5.448-5.48-8.973-1.293-3.524-1.94-7.485-1.94-11.882 0-5.044.89-10.056 2.668-15.035 1.778-4.98 4.397-9.425 7.856-13.337 3.46-3.913 7.696-7.098 12.707-9.555 5.012-2.457 10.784-3.686 17.315-3.686 3.104 0 6.16.356 9.167 1.067 3.007.711 6.159 1.972 9.457 3.783l-5.432 11.737c-2.716-1.423-5.141-2.393-7.275-2.91-2.134-.517-4.43-.776-6.887-.776-3.686 0-7 .744-9.942 2.231a23.322 23.322 0 0 0-7.567 6.063c-2.101 2.554-3.702 5.512-4.801 8.875-1.1 3.363-1.649 6.92-1.649 10.67 0 5.69 1.245 9.83 3.735 12.416 2.49 2.587 6.062 3.88 10.718 3.88 3.104 0 5.965-.323 8.585-.97 2.619-.647 5.06-1.487 7.323-2.522l1.649 12.319zm64.699-64.311h15.132L688.705 591h-15.132l6.887-28.615h-23.862L649.711 591h-15.035l16.102-67.221h15.132l-6.208 25.802h23.862l6.208-25.802zM703.934 591l16.102-67.221h43.941l-3.104 12.416h-28.809l-3.104 13.58h25.414l-3.007 12.222h-25.414l-3.88 16.49h31.04L750.009 591h-46.075zm57.618 0l16.102-67.221h43.553l-3.104 12.513h-28.421l-3.395 14.356h25.123l-3.007 12.513H783.28L776.587 591h-15.035zm95.06-55.775c-2.975 0-5.74.776-8.293 2.328-2.555 1.552-4.786 3.621-6.693 6.208-1.908 2.587-3.395 5.561-4.462 8.924a34.113 34.113 0 0 0-1.601 10.379c0 4.85 1.018 8.778 3.056 11.786 2.037 3.007 5.35 4.51 9.942 4.51 2.975 0 5.74-.776 8.293-2.328 2.555-1.552 4.786-3.621 6.693-6.208 1.908-2.587 3.395-5.545 4.462-8.875 1.068-3.33 1.601-6.807 1.601-10.428 0-4.85-1.018-8.778-3.056-11.785-2.037-3.008-5.35-4.511-9.942-4.511zm-9.603 57.133c-3.945 0-7.566-.647-10.864-1.94-3.298-1.293-6.143-3.152-8.536-5.577-2.393-2.426-4.252-5.384-5.577-8.876-1.326-3.492-1.989-7.437-1.989-11.834 0-5.044.873-10.056 2.619-15.035 1.746-4.98 4.252-9.457 7.517-13.434 3.266-3.978 7.26-7.21 11.98-9.7 4.72-2.49 10.056-3.735 16.005-3.735 3.945 0 7.566.647 10.864 1.94 3.298 1.293 6.143 3.152 8.536 5.577 2.393 2.426 4.252 5.384 5.577 8.876 1.326 3.492 1.989 7.437 1.989 11.834 0 5.044-.857 10.072-2.57 15.084-1.714 5.011-4.204 9.505-7.47 13.482-3.265 3.978-7.258 7.195-11.979 9.652-4.72 2.457-10.088 3.686-16.102 3.686zm76.824-69.355c4.333 0 8.116.517 11.349 1.552 3.233 1.035 5.917 2.425 8.051 4.171 2.134 1.746 3.718 3.8 4.753 6.16a18.287 18.287 0 0 1 1.552 7.42c0 2.134-.242 4.236-.727 6.305-.486 2.07-1.39 4.042-2.716 5.917-1.326 1.875-3.104 3.605-5.336 5.19-2.23 1.584-5.092 2.926-8.584 4.025 1.81 3.363 3.67 7.437 5.578 12.222A232.478 232.478 0 0 1 943.136 591h-16.199c-1.487-4.462-2.99-8.875-4.51-13.24-1.52-4.366-3.218-8.132-5.093-11.301h-7.566L903.851 591h-15.035l15.811-66.251a98.078 98.078 0 0 1 10.185-1.358c3.298-.259 6.305-.388 9.021-.388zm-.485 12.804c-1.1 0-2.231.032-3.395.097-1.164.065-2.134.13-2.91.194l-4.365 18.43h5.141c3.104 0 5.723-.291 7.857-.873 2.134-.582 3.848-1.358 5.141-2.328 1.293-.97 2.215-2.085 2.764-3.346.55-1.262.825-2.539.825-3.832 0-1.1-.162-2.15-.485-3.153-.323-1.002-.905-1.891-1.746-2.667-.84-.776-1.972-1.39-3.395-1.843-1.423-.453-3.233-.679-5.432-.679zm92.247-12.028l-3.104 12.707H992.8L979.705 591h-15.132l13.095-54.514h-19.691l3.104-12.707h54.514z" fill="#FFF" fill-rule="nonzero"/><g transform="translate(1104 707)"><circle stroke="#FFF" fill="#FFF" cx="8" cy="8" r="8"/><path d="M12.95 3.55l-9.9 9.9" stroke="#979797" stroke-width="2" stroke-linecap="square"/></g><g transform="translate(16 16)"><circle stroke="#FFF" fill="#FFF" cx="8" cy="8" r="8"/><path d="M12.95 3.55l-9.9 9.9" stroke="#979797" stroke-width="2" stroke-linecap="square"/></g><g transform="translate(1104 18)"><circle stroke="#FFF" fill="#FFF" cx="8" cy="8" r="8"/><path d="M12.95 13.45l-9.9-9.9" stroke="#979797" stroke-width="2" stroke-linecap="square"/></g><g transform="translate(16 705)"><circle stroke="#FFF" fill="#FFF" cx="8" cy="8" r="8"/><path d="M12.95 13.45l-9.9-9.9" stroke="#979797" stroke-width="2" stroke-linecap="square"/></g></g></svg>