<svg xmlns="http://www.w3.org/2000/svg" viewBox="0 0 200 100"><g fill="none" fill-rule="evenodd"><path stroke="#1A1919" stroke-width="2" d="M62.027 92.38c0 .94.205 1.634.617 2.078.41.444.868.68 1.372.706.505.027.971-.143 1.401-.51.429-.365.645-.888.645-1.569l-.168-58.758c0-.73-.216-1.28-.645-1.647-.43-.365-.906-.522-1.429-.47-.523.052-1 .301-1.429.745-.429.445-.644 1.111-.644 2l.168 37.341c-4.072.524-7.425.837-10.058.942-2.634.105-4.604.131-5.912.078l-.616-36.635c-.038-1.255-.281-2.197-.729-2.824-.448-.628-.944-.928-1.485-.902-.542.027-1.027.366-1.457 1.02-.429.654-.644 1.634-.644 2.941l1.065 55.306c.036 1.098.28 1.871.728 2.314.449.446.925.615 1.429.51.504-.104.971-.457 1.401-1.059.429-.6.625-1.398.588-2.392l-.224-12.552 15.97-.94.056 14.276Zm15.101 2.588h2.97c1.101 0 2.27-.039 3.502-.117a46.724 46.724 0 0 0 3.53-.354c.672-.104 1.13-.483 1.373-1.137a4.333 4.333 0 0 0 .224-2.08 4.87 4.87 0 0 0-.673-1.96c-.355-.575-.775-.836-1.26-.785-1.27.106-2.447.21-3.53.314a43.87 43.87 0 0 1-3.138.196 58.64 58.64 0 0 1-3.082 0 49.863 49.863 0 0 1-3.306-.196l.056-20.239c.336-.052 1.064-.09 2.185-.118 1.121-.026 2.325-.04 3.614-.04H85.393c.523-.05.924-.365 1.205-.94a4.24 4.24 0 0 0 .42-1.884c0-.679-.112-1.306-.336-1.882-.224-.575-.58-.863-1.065-.863H73.682V40.29a89.49 89.49 0 0 0 7.004.04c2.316-.08 4.54-.17 6.668-.276.411 0 .747-.3 1.01-.902a5.05 5.05 0 0 0 .42-1.883 4.136 4.136 0 0 0-.337-1.804c-.244-.549-.664-.797-1.26-.745-3.438.313-6.389.431-8.854.353-2.466-.079-4.24-.118-5.324-.118-.896.053-1.644.431-2.24 1.138-.599.706-.935 2.21-1.01 4.51 0 .262-.009 1.426-.028 3.491a2372.88 2372.88 0 0 0-.056 7.688c-.019 3.06-.037 6.446-.056 10.16l-.056 10.864a828.487 828.487 0 0 0 0 9.728c.02 2.955.046 5.244.084 6.865 0 1.307.14 2.34.42 3.098.281.76.673 1.322 1.177 1.687a3.65 3.65 0 0 0 1.737.667 18.29 18.29 0 0 0 2.158.117h1.99Zm19.247-53.737c0-.941-.224-1.673-.672-2.196-.449-.522-.944-.785-1.485-.785-.542 0-1.037.288-1.485.863-.448.576-.692 1.439-.729 2.589-.037 1.255-.047 3.126-.028 5.609.02 2.484.046 5.283.085 8.394.036 3.112.092 6.381.168 9.806a2565.306 2565.306 0 0 1 .335 18.514c.038 2.589.057 4.589.057 6.001 0 1.308.224 2.236.672 2.785.448.549.943.798 1.485.745.541-.052 1.036-.365 1.485-.941.448-.575.673-1.36.673-2.354l-.28-20.632c.858-.208 2.016-.588 3.473-1.137 1.457-.549 2.895-1.399 4.315-2.55 1.42-1.149 2.652-2.667 3.698-4.549 1.046-1.883 1.57-4.237 1.57-7.061 0-2.248-.42-4.144-1.26-5.687-.842-1.542-1.907-2.758-3.196-3.648a12.472 12.472 0 0 0-4.286-1.883 17.58 17.58 0 0 0-4.595-.471v-1.412Zm8.321 16.945a11.284 11.284 0 0 1-2.409 2.746 13.611 13.611 0 0 1-2.97 1.883c-1.028.47-1.933.758-2.718.863l-.168-15.22c.897-.156 1.877-.156 2.942 0a8.722 8.722 0 0 1 2.998 1.02 7.376 7.376 0 0 1 2.353 2.079c.635.863.953 1.949.953 3.256a6.257 6.257 0 0 1-.98 3.373Zm8.685 34.988c.467.42.98.667 1.54.746.562.078 1.057-.052 1.486-.392.429-.34.625-.955.588-1.844a55.173 55.173 0 0 1-.084-2.354 80.091 80.091 0 0 1 0-2.941c.019-.968.047-2.131.084-3.491.598 1.674 1.448 3.087 2.55 4.236a14.19 14.19 0 0 0 3.67 2.785 13.69 13.69 0 0 0 4.147 1.412c1.419.236 2.764.275 4.035.117.41-.051.737-.365.98-.941a5.69 5.69 0 0 0 .42-1.922c.037-.706-.037-1.334-.224-1.883-.187-.55-.505-.797-.953-.745-.672.106-1.447.13-2.325.078a10.66 10.66 0 0 1-2.661-.51 7.558 7.558 0 0 1-2.494-1.372c-.766-.627-1.355-1.464-1.765-2.511 1.457-.678 2.923-1.738 4.399-3.176 1.475-1.438 2.83-3.178 4.062-5.217 1.232-2.04 2.25-4.288 3.054-6.747.803-2.458 1.26-5.046 1.373-7.766.149-4.027-.272-7.453-1.261-10.277-.99-2.824-2.335-5.14-4.034-6.943a16.266 16.266 0 0 0-5.94-4.04 24.854 24.854 0 0 0-6.92-1.647c-1.01 0-1.793.17-2.354.51-.561.34-.98.772-1.261 1.294a4.517 4.517 0 0 0-.504 1.765 23.448 23.448 0 0 0-.084 2 236.122 236.122 0 0 0-.112 7.767v9.257c0 3.243.009 6.51.028 9.806.019 3.295.037 6.433.056 9.414.019 2.98.019 5.675 0 8.08-.02 2.406-.065 4.342-.14 5.805-.038.68.177 1.229.644 1.647Zm8.966-50.756a13.002 13.002 0 0 1 4.707 2.903c1.363 1.308 2.446 2.995 3.25 5.06.803 2.066 1.148 4.564 1.037 7.492-.076 2.249-.486 4.51-1.233 6.785-.748 2.275-1.738 4.315-2.97 6.12-1.233 1.804-2.644 3.255-4.231 4.354-1.588 1.098-3.26 1.568-5.014 1.41a1.68 1.68 0 0 1-.393-.077 1.77 1.77 0 0 0-.392-.08c-.076-1.515-.122-3.49-.14-5.921-.02-2.432-.028-5.178-.028-8.237 0-3.06.008-6.367.028-9.924.018-3.556.027-7.243.027-11.062 1.794.158 3.577.55 5.352 1.177Zm23.365 52.56h2.97c1.1 0 2.269-.039 3.503-.117a46.696 46.696 0 0 0 3.529-.354c.673-.104 1.13-.483 1.373-1.137a4.333 4.333 0 0 0 .225-2.08 4.885 4.885 0 0 0-.673-1.96c-.356-.575-.776-.836-1.261-.785-1.27.106-2.447.21-3.53.314a43.835 43.835 0 0 1-3.138.196 58.64 58.64 0 0 1-3.082 0 49.903 49.903 0 0 1-3.306-.196l.056-20.239c.336-.052 1.064-.09 2.186-.118 1.12-.026 2.325-.04 3.614-.04h5.8c.522-.05.923-.365 1.204-.94.28-.576.42-1.203.42-1.884 0-.679-.112-1.306-.336-1.882-.224-.575-.58-.863-1.065-.863h-11.935V40.29c2.353.105 4.688.117 7.005.04 2.315-.08 4.539-.17 6.668-.276.41 0 .747-.3 1.008-.902a5.05 5.05 0 0 0 .42-1.883 4.108 4.108 0 0 0-.336-1.804c-.243-.549-.664-.797-1.26-.745-3.438.313-6.388.431-8.854.353-2.466-.079-4.24-.118-5.323-.118-.897.053-1.645.431-2.241 1.138-.6.706-.935 2.21-1.01 4.51 0 .262-.01 1.426-.027 3.491-.02 2.067-.038 4.63-.056 7.688-.02 3.06-.038 6.446-.057 10.16l-.055 10.864c-.02 3.531-.02 6.774 0 9.728.018 2.955.046 5.244.084 6.865 0 1.307.14 2.34.419 3.098.28.76.673 1.322 1.177 1.687a3.65 3.65 0 0 0 1.738.667c.653.078 1.373.117 2.157.117h1.989ZM19.561 98.429h17.733L28.427 2zM161.494 98.429h17.733L170.36 2z"/><path stroke="#1A1919" stroke-width="2" d="M9 25.645h181.435V22.32H9z"/><path d="M0 0h200v100H0z"/></g></svg>