<svg xmlns="http://www.w3.org/2000/svg" width="470" height="753" viewBox="0 0 470 753"><g fill="none" fill-rule="evenodd"><path fill="#FFF" d="M326.34639,232.31173 C326.34639,283.12015 285.30882,324.15772 234.5004,324.15772 C183.69198,324.15772 142.65441,283.12015 142.65441,232.31173 C142.65441,181.50331 183.69198,140.46574 234.5004,140.46574 C285.30882,140.46574 326.34639,181.50331 326.34639,232.31173 Z"/><path fill="#00A9E0" d="M235.360235,0 C106.912641,0 0,111.211815 0,231.881812 C0,286.168655 30.5632188,355.150856 52.6453398,402.79352 L234.5004,752.042783 L415.495625,402.79352 C437.577746,355.150856 469.0008,289.627536 469.0008,231.881812 C469.0008,111.211815 363.807829,0 235.360235,0 Z M235.360235,139.820863 C285.855988,140.153072 326.795849,181.288351 326.795849,231.86227 C326.795849,282.43619 285.855988,322.985218 235.360235,323.297885 C184.864482,322.965676 143.924621,282.455732 143.924621,231.86227 C143.924621,181.288351 184.864482,140.153072 235.360235,139.820863 Z"/></g></svg>