<svg viewBox="0 0 20 16" xmlns="http://www.w3.org/2000/svg"><path d="m3.15789474 0h13.68421056c1.7440571 0 3.1578947 1.4326888 3.1578947 3.2v9.6c0 1.7673112-1.4138376 3.2-3.1578947 3.2h-13.68421056c-1.74405711 0-3.15789474-1.4326888-3.15789474-3.2v-9.6c0-1.7673112 1.41383763-3.2 3.15789474-3.2zm0 1.06666484c-.51368421 0-.98526316.18666849-1.35052632.49706849l8.19263158 5.39093334 8.1926316-5.39093334c-.3783564-.32169246-.8566298-.49772294-1.3505263-.49706849zm6.84210526 7.15946849-8.80631579-5.79413333c-.09338245.24498666-.141053.50537325-.141053.768v9.6c0 1.1782075.94255879 2.1333333 2.10526353 2.1333333h13.68421056c1.1627047 0 2.1052631-.9551258 2.1052631-2.1333333v-9.6c0-.27093333-.0494737-.53013333-.1410526-.768l-8.8063158 5.79306667z"/></svg>