<svg xmlns="http://www.w3.org/2000/svg" viewBox="0 0 200 100"><title>ro-lhdt</title><g fill="none" fill-rule="evenodd"><g stroke="#1a1919" stroke-width="2"><path d="M20.657 98.429h15.54a1 1 0 0 0 .997-1.092L29.423 12.83a1 1 0 0 0-1.992 0l-7.77 84.507a1 1 0 0 0 .996 1.092Zm141.933 0h15.54a1 1 0 0 0 .997-1.092l-7.771-84.507a1 1 0 0 0-1.992 0l-7.77 84.507a1 1 0 0 0 .996 1.092Z"/><path d="M10 25.645h179.435a1 1 0 0 0 1-1V23.32a1 1 0 0 0-1-1H10a1 1 0 0 0-1 1v1.325a1 1 0 0 0 1 1Z"/></g><g fill="#000" fill-rule="nonzero"><path d="m55.368 18-1.68-4.424H52.54V18h-1.232V8.088h2.562q.546 0 1.029.147t.847.469.574.84.21 1.246q0 .601-.154 1.05a2.6 2.6 0 0 1-.399.763q-.245.315-.539.497-.294.181-.574.238L56.712 18zm-.084-7.154q0-.504-.14-.826a1.4 1.4 0 0 0-.364-.518 1.26 1.26 0 0 0-.518-.273 2.3 2.3 0 0 0-.588-.077H52.54v3.444h1.162q.714 0 1.148-.455.435-.455.434-1.295M64.552 13.03q0 1.162-.231 2.121t-.672 1.645a3.3 3.3 0 0 1-1.064 1.064 2.7 2.7 0 0 1-1.421.378 2.7 2.7 0 0 1-1.428-.378 3.3 3.3 0 0 1-1.071-1.064q-.441-.686-.672-1.645a9 9 0 0 1-.231-2.121q0-1.162.224-2.121.225-.96.658-1.638a3.15 3.15 0 0 1 1.071-1.05 2.8 2.8 0 0 1 1.449-.371q.798 0 1.421.371.623.37 1.064 1.05t.672 1.638q.231.96.231 2.121m-1.33 0q0-.84-.133-1.582a5 5 0 0 0-.392-1.288 2.44 2.44 0 0 0-.644-.861 1.36 1.36 0 0 0-.889-.315 1.4 1.4 0 0 0-.91.315 2.4 2.4 0 0 0-.651.861 5 5 0 0 0-.385 1.288 9.5 9.5 0 0 0-.126 1.582q0 .84.126 1.582t.385 1.288a2.4 2.4 0 0 0 .651.861q.392.315.91.315.504 0 .889-.315a2.44 2.44 0 0 0 .644-.861 5 5 0 0 0 .392-1.288 9 9 0 0 0 .133-1.582M71.776 16.936a3 3 0 0 1-.966.945q-.588.357-1.428.357-.825 0-1.484-.392a3.34 3.34 0 0 1-1.106-1.092 5.5 5.5 0 0 1-.686-1.645 8.5 8.5 0 0 1-.238-2.065q0-1.12.245-2.072t.7-1.645a3.45 3.45 0 0 1 1.106-1.085 2.8 2.8 0 0 1 1.463-.392q.756 0 1.386.294t1.036.896l-.784.854a2.04 2.04 0 0 0-.714-.665 1.8 1.8 0 0 0-.868-.217q-.574 0-.994.322a2.45 2.45 0 0 0-.693.868q-.273.546-.413 1.281t-.14 1.561.14 1.554.42 1.281.707.875 1.001.322q.518 0 .917-.28t.637-.686zM77.824 18v-4.578h-3.458V18h-1.26V8.088h1.26v4.214h3.458V8.088h1.26V18zM81.268 18V8.088h4.172v1.12h-2.954v3.122h2.758v1.05h-2.758v3.486h3.094V18zM88.478 9.236v3.192h2.702v1.092h-2.702V18h-1.246V8.088h4.158v1.148zM99.258 13.03q0 1.162-.231 2.121t-.672 1.645a3.3 3.3 0 0 1-1.064 1.064 2.7 2.7 0 0 1-1.421.378 2.7 2.7 0 0 1-1.428-.378 3.3 3.3 0 0 1-1.071-1.064q-.441-.686-.672-1.645a9 9 0 0 1-.231-2.121q0-1.162.224-2.121.225-.96.658-1.638a3.15 3.15 0 0 1 1.071-1.05 2.8 2.8 0 0 1 1.449-.371q.798 0 1.421.371.623.37 1.064 1.05t.672 1.638q.231.96.231 2.121m-1.33 0q0-.84-.133-1.582a5 5 0 0 0-.392-1.288 2.44 2.44 0 0 0-.644-.861 1.36 1.36 0 0 0-.889-.315 1.4 1.4 0 0 0-.91.315 2.4 2.4 0 0 0-.651.861 5 5 0 0 0-.385 1.288 9.5 9.5 0 0 0-.126 1.582q0 .84.126 1.582t.385 1.288a2.4 2.4 0 0 0 .651.861q.392.315.91.315.504 0 .889-.315a2.44 2.44 0 0 0 .644-.861 5 5 0 0 0 .392-1.288 9 9 0 0 0 .133-1.582M105.068 18l-1.68-4.424h-1.148V18h-1.232V8.088h2.562q.546 0 1.029.147t.847.469.574.84.21 1.246q0 .601-.154 1.05a2.6 2.6 0 0 1-.399.763q-.245.315-.539.497-.294.181-.574.238L106.412 18zm-.084-7.154q0-.504-.14-.826a1.4 1.4 0 0 0-.364-.518 1.26 1.26 0 0 0-.518-.273 2.3 2.3 0 0 0-.588-.077h-1.134v3.444h1.162q.714 0 1.148-.455t.434-1.295M109.856 9.166V18h-1.246V9.166h-1.89V8.088h5.026v1.078zM121.518 13.03q0 1.162-.231 2.121t-.672 1.645a3.3 3.3 0 0 1-1.064 1.064 2.7 2.7 0 0 1-1.421.378 2.7 2.7 0 0 1-1.428-.378 3.3 3.3 0 0 1-1.071-1.064q-.441-.686-.672-1.645a9 9 0 0 1-.231-2.121q0-1.162.224-2.121.225-.96.658-1.638a3.15 3.15 0 0 1 1.071-1.05 2.8 2.8 0 0 1 1.449-.371q.798 0 1.421.371.623.37 1.064 1.05t.672 1.638q.231.96.231 2.121m-1.33 0q0-.84-.133-1.582a5 5 0 0 0-.392-1.288 2.44 2.44 0 0 0-.644-.861 1.36 1.36 0 0 0-.889-.315 1.4 1.4 0 0 0-.91.315 2.4 2.4 0 0 0-.651.861 5 5 0 0 0-.385 1.288 9.5 9.5 0 0 0-.126 1.582q0 .84.126 1.582t.385 1.288a2.4 2.4 0 0 0 .651.861q.392.315.91.315.504 0 .889-.315a2.44 2.44 0 0 0 .644-.861 5 5 0 0 0 .392-1.288 9 9 0 0 0 .133-1.582M128.742 16.936a3 3 0 0 1-.966.945q-.588.357-1.428.357-.825 0-1.484-.392a3.34 3.34 0 0 1-1.106-1.092 5.5 5.5 0 0 1-.686-1.645 8.5 8.5 0 0 1-.238-2.065q0-1.12.245-2.072t.7-1.645a3.45 3.45 0 0 1 1.106-1.085 2.8 2.8 0 0 1 1.463-.392q.756 0 1.386.294t1.036.896l-.784.854a2.04 2.04 0 0 0-.714-.665 1.8 1.8 0 0 0-.868-.217q-.574 0-.994.322a2.45 2.45 0 0 0-.693.868q-.273.546-.413 1.281t-.14 1.561.14 1.554.42 1.281.707.875 1.001.322q.518 0 .917-.28t.637-.686zM130.072 18V8.088h4.172v1.12h-2.954v3.122h2.758v1.05h-2.758v3.486h3.094V18zm2.366-10.696h-.938l1.26-2.016h1.176zM140.334 18l-.56-2.324h-2.87L136.33 18h-1.274l2.492-9.912h1.666L141.65 18zm-1.946-8.736h-.056l-1.26 5.418h2.534zM147.222 18l-3.164-7.686h-.042V18h-1.162V8.088h1.512l3.122 7.7h.042v-7.7h1.162V18z"/></g><g fill="#000" fill-rule="nonzero"><path d="M42.886 59V46.256h1.62v11.232h3.6V59zM49.6 59V46.256h5.364v1.44h-3.798v4.014h3.546v1.35h-3.546v4.482h3.978V59zM63.028 55.616a4.3 4.3 0 0 1-.27 1.557 3.4 3.4 0 0 1-.729 1.161 3.1 3.1 0 0 1-1.089.72q-.63.252-1.35.252a4.3 4.3 0 0 1-1.845-.405q-.873-.405-1.395-1.071l.954-1.17q.414.54 1.035.846t1.251.306q.81 0 1.332-.54t.522-1.566a2.1 2.1 0 0 0-.162-.855 2.3 2.3 0 0 0-.45-.666 4 4 0 0 0-.657-.54 8 8 0 0 0-.801-.459 7.5 7.5 0 0 1-.981-.567 4.3 4.3 0 0 1-.819-.729 3.1 3.1 0 0 1-.567-.981q-.207-.567-.207-1.341 0-.918.288-1.602t.765-1.134a3.05 3.05 0 0 1 1.089-.666 3.7 3.7 0 0 1 1.242-.216q.918 0 1.647.306t1.215.918l-.972 1.152q-.684-.9-1.836-.9-.342 0-.675.117a1.65 1.65 0 0 0-.603.378q-.27.261-.432.657t-.162.954q0 .486.153.837t.414.63.603.504a7 7 0 0 0 .738.423q.504.252.99.567t.882.747.639 1.017.243 1.359M78.094 59v-5.886h-4.446V59h-1.62V46.256h1.62v5.418h4.446v-5.418h1.62V59zM82.522 59V46.256h5.364v1.44h-3.798v4.014h3.546v1.35h-3.546v4.482h3.978V59zm3.042-13.752h-1.206l1.62-2.592h1.512zM95.14 49.658q0-.576-.18-.963a1.8 1.8 0 0 0-.468-.63 1.7 1.7 0 0 0-.657-.342 3 3 0 0 0-.765-.099h-1.35v4.104h1.386q.36 0 .729-.117t.657-.36.468-.639.18-.954m.342 5.724q0-.648-.207-1.107a2.1 2.1 0 0 0-.531-.738 2 2 0 0 0-.729-.405 2.7 2.7 0 0 0-.801-.126H91.72v4.626h1.566q.45 0 .855-.135t.702-.405.468-.693.171-1.017m-.576-3.078a2.62 2.62 0 0 1 1.44.891q.324.387.531.954t.207 1.341q0 .99-.324 1.656a3.2 3.2 0 0 1-.828 1.08 3.1 3.1 0 0 1-1.116.594q-.612.18-1.188.18H90.19V46.256h3.06q.54 0 1.143.135t1.107.495.828.972.324 1.548q0 .63-.144 1.098a3 3 0 0 1-.387.819 2.5 2.5 0 0 1-.558.585q-.315.234-.657.36zM99.19 59V46.256h5.364v1.44h-3.798v4.014h3.546v1.35h-3.546v4.482h3.978V59zM112.078 59l-2.16-5.688h-1.476V59h-1.584V46.256h3.294q.702 0 1.323.189t1.089.603.738 1.08.27 1.602q0 .774-.198 1.35a3.4 3.4 0 0 1-.513.981q-.315.405-.693.639a2.3 2.3 0 0 1-.738.306L113.806 59zm-.108-9.198q0-.648-.18-1.062a1.85 1.85 0 0 0-.468-.666 1.6 1.6 0 0 0-.666-.351 3 3 0 0 0-.756-.099h-1.458v4.428h1.494q.918 0 1.476-.585t.558-1.665M119.656 45.95q1.026 0 1.818.378t1.314 1.152l-1.008 1.098q-.396-.576-.918-.864a2.3 2.3 0 0 0-1.134-.288q-.738 0-1.269.414t-.891 1.125a6 6 0 0 0-.531 1.656q-.171.945-.171 1.989 0 1.098.189 2.043t.558 1.638.927 1.089 1.314.396q1.008 0 1.53-.432v-3.942h-1.674v-1.404h3.24v6.21a4.4 4.4 0 0 1-1.305.747q-.747.279-1.827.279-1.098 0-1.962-.477a4.3 4.3 0 0 1-1.467-1.341q-.603-.864-.918-2.088t-.315-2.718q0-1.44.306-2.655t.882-2.106a4.35 4.35 0 0 1 1.413-1.395q.837-.504 1.899-.504M125.452 59V46.256h5.364v1.44h-3.798v4.014h3.546v1.35h-3.546v4.482h3.978V59zM140.518 54.626q0 .972-.198 1.818a4.2 4.2 0 0 1-.648 1.485 3.16 3.16 0 0 1-1.179 1.008q-.729.369-1.791.369t-1.773-.369a3.2 3.2 0 0 1-1.161-1.008 4.1 4.1 0 0 1-.639-1.485 8.3 8.3 0 0 1-.189-1.818v-8.37h1.62v8.208q0 .648.099 1.251t.342 1.071.666.747 1.071.279 1.062-.279.657-.747.342-1.071.099-1.251v-8.208h1.62zM148.366 59l-2.16-5.688h-1.476V59h-1.584V46.256h3.294q.702 0 1.323.189t1.089.603.738 1.08.27 1.602q0 .774-.198 1.35a3.4 3.4 0 0 1-.513.981q-.315.405-.693.639a2.3 2.3 0 0 1-.738.306L150.094 59zm-.108-9.198q0-.648-.18-1.062a1.85 1.85 0 0 0-.468-.666 1.6 1.6 0 0 0-.666-.351 3 3 0 0 0-.756-.099h-1.458v4.428h1.494q.918 0 1.476-.585t.558-1.665M157.762 55.616a4.3 4.3 0 0 1-.27 1.557 3.4 3.4 0 0 1-.729 1.161 3.1 3.1 0 0 1-1.089.72q-.63.252-1.35.252a4.3 4.3 0 0 1-1.845-.405q-.873-.405-1.395-1.071l.954-1.17q.414.54 1.035.846t1.251.306q.81 0 1.332-.54t.522-1.566a2.1 2.1 0 0 0-.162-.855 2.3 2.3 0 0 0-.45-.666 4 4 0 0 0-.657-.54 8 8 0 0 0-.801-.459 7.5 7.5 0 0 1-.981-.567 4.3 4.3 0 0 1-.819-.729 3.1 3.1 0 0 1-.567-.981q-.207-.567-.207-1.341 0-.918.288-1.602t.765-1.134a3.05 3.05 0 0 1 1.089-.666 3.7 3.7 0 0 1 1.242-.216q.918 0 1.647.306t1.215.918l-.972 1.152q-.684-.9-1.836-.9-.342 0-.675.117a1.65 1.65 0 0 0-.603.378q-.27.261-.432.657t-.162.954q0 .486.153.837t.414.63.603.504a7 7 0 0 0 .738.423q.504.252.99.567t.882.747.639 1.017.243 1.359M62.749 77.646q0 3.096-1.26 4.725T57.961 84h-2.916V71.256h2.934q2.268 0 3.519 1.638t1.251 4.752m-1.62 0q0-1.26-.243-2.196t-.666-1.548a2.8 2.8 0 0 0-1.008-.918 2.66 2.66 0 0 0-1.251-.306h-1.314v9.9h1.314a2.66 2.66 0 0 0 1.251-.306 2.8 2.8 0 0 0 1.008-.918q.423-.612.666-1.539t.243-2.169M64.999 84V71.256h5.364v1.44h-3.798v4.014h3.546v1.35h-3.546v4.482h3.978V84zM81.703 72.642V84h-1.602V72.642h-2.43v-1.386h6.462v1.386zM93.493 77.61q0 1.494-.297 2.727t-.864 2.115-1.368 1.368-1.827.486-1.836-.486-1.377-1.368-.864-2.115-.297-2.727.288-2.727.846-2.106a4.05 4.05 0 0 1 1.377-1.35q.819-.477 1.863-.477 1.026 0 1.827.477t1.368 1.35.864 2.106.297 2.727m-1.71 0q0-1.08-.171-2.034a6.6 6.6 0 0 0-.504-1.656q-.333-.702-.828-1.107a1.75 1.75 0 0 0-1.143-.405q-.666 0-1.17.405t-.837 1.107-.495 1.656a12 12 0 0 0-.162 2.034q0 1.08.162 2.034t.495 1.656.837 1.107 1.17.405q.648 0 1.143-.405t.828-1.107.504-1.656.171-2.034M103.141 79.626q0 .972-.198 1.818a4.2 4.2 0 0 1-.648 1.485 3.16 3.16 0 0 1-1.179 1.008q-.729.369-1.791.369t-1.773-.369a3.2 3.2 0 0 1-1.161-1.008 4.1 4.1 0 0 1-.639-1.485 8.3 8.3 0 0 1-.189-1.818v-8.37h1.62v8.208q0 .648.099 1.251t.342 1.071.666.747 1.071.279 1.062-.279.657-.747.342-1.071.099-1.251v-8.208h1.62zM110.989 84l-2.16-5.688h-1.476V84h-1.584V71.256h3.294q.702 0 1.323.189t1.089.603.738 1.08.27 1.602q0 .774-.198 1.35a3.4 3.4 0 0 1-.513.981q-.315.405-.693.639a2.3 2.3 0 0 1-.738.306L112.717 84zm-.108-9.198q0-.648-.18-1.062a1.85 1.85 0 0 0-.468-.666 1.6 1.6 0 0 0-.666-.351 3 3 0 0 0-.756-.099h-1.458v4.428h1.494q.918 0 1.476-.585t.558-1.665M114.625 84V71.256h1.62V84zM124.813 80.616a4.3 4.3 0 0 1-.27 1.557 3.4 3.4 0 0 1-.729 1.161 3.1 3.1 0 0 1-1.089.72q-.63.252-1.35.252a4.3 4.3 0 0 1-1.845-.405q-.873-.405-1.395-1.071l.954-1.17q.414.54 1.035.846t1.251.306q.81 0 1.332-.54t.522-1.566a2.1 2.1 0 0 0-.162-.855 2.3 2.3 0 0 0-.45-.666 4 4 0 0 0-.657-.54 8 8 0 0 0-.801-.459 7.5 7.5 0 0 1-.981-.567 4.3 4.3 0 0 1-.819-.729 3.1 3.1 0 0 1-.567-.981q-.207-.567-.207-1.341 0-.918.288-1.602t.765-1.134a3.05 3.05 0 0 1 1.089-.666 3.7 3.7 0 0 1 1.242-.216q.918 0 1.647.306t1.215.918l-.972 1.152q-.684-.9-1.836-.9-.342 0-.675.117a1.65 1.65 0 0 0-.603.378q-.27.261-.432.657t-.162.954q0 .486.153.837t.414.63.603.504a7 7 0 0 0 .738.423q.504.252.99.567t.882.747.639 1.017.243 1.359M135.685 84V73.452h-.054L132.787 84h-1.458l-2.808-10.548h-.054V84h-1.494V71.256h2.376l2.718 10.116h.072l2.664-10.116h2.484V84zM140.095 84V71.256h5.364v1.44h-3.798v4.014h3.546v1.35h-3.546v4.482h3.978V84z"/></g></g></svg>